<svg width="140" height="140" viewBox="0 0 140 140" fill="none" xmlns="http://www.w3.org/2000/svg">
<circle cx="70" cy="70" r="69" fill="#6C4A22" stroke="url(#paint0_linear_47_438)" stroke-width="2"/>
<path d="M52.0811 81.6332L46.1741 102.346M38.0121 100.014L54.3306 104.667M43.4846 64.5612L54.1271 36.3462L74.2186 42.0662L68.3776 71.6562C68.0358 73.4243 67.3302 75.1021 66.3055 76.5829C65.2807 78.0638 63.9593 79.3155 62.4251 80.2584C60.8909 81.2014 59.1773 81.8151 57.3933 82.0605C55.6093 82.306 53.7937 82.1778 52.0618 81.6842C50.3299 81.1906 48.7196 80.3423 47.333 79.1931C45.9465 78.044 44.814 76.6192 44.0074 75.009C43.2009 73.3989 42.7379 71.6387 42.6479 69.8401C42.5579 68.0415 42.8428 66.2438 43.4846 64.5612Z" stroke="white" stroke-width="3" stroke-linecap="round" stroke-linejoin="round"/>
<path d="M48.8141 50.4092L71.2871 56.8717" stroke="white" stroke-width="3"/>
<path d="M78.6187 80.7972C80.9563 81.9505 83.5868 82.3739 86.1683 82.0123C88.7498 81.6508 91.1628 80.521 93.0936 78.7699C95.0245 77.0188 96.3839 74.7273 96.9952 72.1933C97.6065 69.6593 97.4413 67.0001 96.5211 64.5612L85.8677 36.3462L82.6997 37.2427M87.9192 81.6332L93.8262 102.346M101.988 100.014L85.6697 104.667M91.1862 50.4757L82.0066 53.1157" stroke="white" stroke-width="3" stroke-linecap="round" stroke-linejoin="round"/>
<defs>
<linearGradient id="paint0_linear_47_438" x1="70" y1="0" x2="70" y2="140" gradientUnits="userSpaceOnUse">
<stop stop-color="#BB8C56"/>
<stop offset="1" stop-color="#6C4A22"/>
</linearGradient>
</defs>
</svg>
