<svg width="140" height="140" viewBox="0 0 140 140" fill="none" xmlns="http://www.w3.org/2000/svg">
<circle cx="70" cy="70" r="69" fill="#6C4A22" stroke="url(#paint0_linear_47_432)" stroke-width="2"/>
<path d="M32 107.914V78.834L48 71.738V58.53L68 48.45V39.302H60V35.302H68V27.302H72V35.302H80V39.302H72V48.458L92 58.534V71.742L108 78.842V107.914H76V93.606C76 91.9607 75.412 90.5487 74.236 89.37C73.06 88.1913 71.648 87.6047 70 87.61C68.352 87.6153 66.94 88.202 65.764 89.37C64.588 90.538 64 91.9513 64 93.61V107.914H32ZM36 103.914H60V93.562C60 90.762 60.972 88.3873 62.916 86.438C64.8573 84.4887 67.216 83.514 69.992 83.514C72.768 83.514 75.1293 84.4873 77.076 86.434C79.0253 88.386 80 90.762 80 93.562V103.914H104V81.406L88 74.234V60.882L70 51.682L52 60.882V74.234L36 81.406V103.914ZM70.02 74.374C71.2627 74.374 72.3133 73.9393 73.172 73.07C74.0307 72.198 74.46 71.1393 74.46 69.894C74.46 68.6487 74.0253 67.598 73.156 66.742C72.2867 65.886 71.228 65.4567 69.98 65.454C68.732 65.4513 67.6813 65.886 66.828 66.758C65.9747 67.63 65.5453 68.6887 65.54 69.934C65.5347 71.1793 65.9693 72.23 66.844 73.086C67.7187 73.942 68.7773 74.3713 70.02 74.374Z" fill="white"/>
<defs>
<linearGradient id="paint0_linear_47_432" x1="70" y1="0" x2="70" y2="140" gradientUnits="userSpaceOnUse">
<stop stop-color="#BB8C56"/>
<stop offset="1" stop-color="#6C4A22"/>
</linearGradient>
</defs>
</svg>
