<svg width="140" height="140" viewBox="0 0 140 140" fill="none" xmlns="http://www.w3.org/2000/svg">
<circle cx="70" cy="70" r="69" fill="#6C4A22" stroke="url(#paint0_linear_47_448)" stroke-width="2"/>
<g clip-path="url(#clip0_47_448)">
<mask id="path-2-outside-1_47_448" maskUnits="userSpaceOnUse" x="19.2362" y="33.3796" width="46" height="69" fill="black">
<rect fill="white" x="19.2362" y="33.3796" width="46" height="69"/>
<path d="M30.3789 35.2689L27.4571 36.0658L26.4211 37.0751C24.5086 38.9478 22.7157 41.272 21.1086 43.9548C20.2055 45.4423 20.086 45.7611 20.3782 45.9603C20.4711 46.0134 22.5696 47.1955 25.0399 48.59L29.5555 51.1134L29.8743 51.9767C30.0469 52.4548 30.6711 54.208 31.2555 55.8947C32.2782 58.8298 32.318 58.9626 32.1188 59.308C31.8797 59.7064 31.8133 62.19 32.0391 62.6017C32.1321 62.7876 32.0258 63.0798 31.4946 63.9431C31.1227 64.5541 30.2727 66.1744 29.5821 67.5423C25.518 75.6837 23.2735 84.7283 22.9282 94.397L22.8352 96.8275L23.1539 97.0533C23.6321 97.3853 26.4344 98.2486 28.2141 98.6072C29.675 98.8994 29.768 98.9392 29.8079 99.2447C29.861 99.6962 30.3922 99.9751 31.9063 100.374C37.0196 101.715 46.9805 101.715 52.0938 100.374C53.6211 99.9751 54.1391 99.6962 54.1922 99.2447C54.2321 98.9259 54.325 98.8994 55.7461 98.6205C57.4594 98.2884 60.368 97.3853 60.8461 97.0533L61.1649 96.8275L61.0719 94.397C60.793 86.508 59.3188 79.3494 56.4766 72.1111C55.5602 69.7736 53.8071 66.1744 52.6516 64.222C51.9875 63.1197 51.8547 62.8009 51.961 62.6017C52.1868 62.1767 52.1204 59.7064 51.8813 59.2814C51.6688 58.9361 51.6821 58.8564 52.2133 57.2759C52.5055 56.3728 53.143 54.6064 53.6079 53.3712L54.4446 51.1134L59.0133 48.5767C61.5235 47.1689 63.6352 45.9337 63.7149 45.8142C63.8743 45.5486 63.5422 44.9111 61.9883 42.547C60.6469 40.4884 59.1063 38.5626 57.6454 37.1415L56.543 36.0658L53.5282 35.2423L50.5133 34.4322L49.0789 34.897C46.3961 35.7603 44.9485 35.9728 41.8008 35.9595C38.693 35.9595 37.7899 35.8134 35.0141 34.9236C34.2039 34.658 33.4868 34.4455 33.4204 34.4587C33.3539 34.4587 31.986 34.8306 30.3789 35.2689ZM33.1813 36.5837C33.4602 37.7923 34.536 39.8908 35.5586 41.2455C38.5071 45.1501 43.8461 49.0947 50.7125 52.4548L52.4524 53.3048L51.5094 56.0939L50.5665 58.883H47.6047C44.829 58.883 44.6032 58.8697 44.2977 58.6173C43.9922 58.3783 43.7532 58.3517 42 58.3517C40.2469 58.3517 40.0079 58.3783 39.7024 58.6173C39.3969 58.8697 39.1711 58.883 36.3821 58.883H33.3938L33.0219 57.7806C32.8227 57.183 32.1321 55.1775 31.4813 53.3181C30.193 49.6259 29.7016 47.8861 29.1969 45.2697C28.8649 43.5033 28.4 40.0103 28.2539 38.0712L28.1743 36.9822L28.6789 36.8494C28.9579 36.7697 30.0204 36.4775 31.043 36.1986C32.0657 35.9064 32.9157 35.6939 32.9422 35.7072C32.9688 35.7337 33.075 36.1322 33.1813 36.5837ZM53.5415 36.358C54.7235 36.69 55.7329 36.9822 55.7727 37.0087C55.9852 37.2345 55.1618 43.5697 54.5375 46.4915C54.0993 48.5501 53.1165 51.9236 52.8907 52.1626C52.6516 52.4017 47.4188 49.6126 44.4172 47.647L42.9165 46.6642L44.0852 45.6947C47.9633 42.454 50.2477 39.2267 50.9516 36.0126C51.0047 35.8001 51.0977 35.6806 51.204 35.7072C51.2836 35.7337 52.3461 36.0392 53.5415 36.358ZM35.1735 36.0923C35.6782 36.265 36.7805 36.5439 37.6172 36.7166C38.9454 36.9955 39.5032 37.0353 41.8672 37.0353C44.8555 37.0353 46.1836 36.8494 48.5079 36.172C49.1985 35.9595 49.7961 35.8134 49.8227 35.8533C49.9422 35.9728 49.5438 37.1814 49.0391 38.2439C48.043 40.3025 45.8649 42.8525 43.3149 44.9376L42.0133 46.0001L40.9774 45.19C38.1618 42.972 35.4657 39.6783 34.5625 37.354C34.2172 36.4509 34.0579 35.7736 34.2039 35.7736C34.2305 35.7736 34.6688 35.9197 35.1735 36.0923ZM27.311 39.24C27.4836 41.8697 28.493 47.833 28.9977 49.1478C29.0641 49.3337 29.1039 49.5064 29.0774 49.533C29.0243 49.5861 21.7461 45.5884 21.5868 45.4158C21.4008 45.2431 23.8711 41.5244 25.3055 39.8244C26.1688 38.8017 27.0188 37.8986 27.1383 37.8986C27.1782 37.8986 27.2579 38.4962 27.311 39.24ZM57.486 38.4564C59.4649 40.5416 62.6922 45.1634 62.3735 45.4556C62.2008 45.615 54.9758 49.5994 54.9493 49.5595C54.936 49.533 55.0821 48.8423 55.2946 48.0056C55.9586 45.3361 56.7422 40.2095 56.7422 38.5228C56.7422 38.1775 56.7954 37.8986 56.8485 37.8986C56.9016 37.8986 57.1938 38.1509 57.486 38.4564ZM43.5938 61.008V62.6017H42H40.4063V61.008V59.4142H42H43.5938V61.008ZM39.3438 61.008V62.0705H36.1563H32.9688V61.008V59.9455H36.1563H39.3438V61.008ZM51.0313 61.008V62.0705H47.8438H44.6563V61.008V59.9455H47.8438H51.0313V61.008ZM35.3196 63.3587C35.293 63.4916 34.9477 64.6072 34.5758 65.8291C31.8664 74.7275 30.2594 84.7548 29.8344 95.4994C29.7946 96.7611 29.6883 97.797 29.6352 97.797C29.25 97.797 26.2485 97.0666 25.186 96.7212L23.9375 96.2962V95.4197C23.9375 93.9455 24.2032 90.3994 24.4688 88.3009C25.1727 82.7759 26.4477 77.7955 28.4797 72.5892C29.3696 70.3314 31.5211 65.9087 32.5704 64.222L33.2477 63.133H34.3235C35.2797 63.133 35.386 63.1595 35.3196 63.3587ZM39.7024 63.3986C40.0079 63.6376 40.2469 63.6642 42 63.6642C43.7664 63.6642 43.9922 63.6376 44.2977 63.3986C44.6032 63.1595 44.8024 63.133 46.0774 63.1595L47.4985 63.1994L48.0032 64.7931C50.2743 71.8986 52.0008 80.7837 52.6914 88.8322C52.9172 91.5681 53.1563 95.9642 53.1563 97.7439V98.9525L52.2 99.2314C47.3258 100.666 36.5414 100.666 31.7868 99.2314L30.8039 98.9392L30.8969 96.0837C31.1891 86.6673 32.3711 78.2205 34.6289 69.5744C35.1602 67.5158 36.3555 63.4783 36.5149 63.2259C36.5414 63.1728 37.2055 63.133 37.9758 63.133C39.1711 63.133 39.4235 63.1728 39.7024 63.3986ZM51.4297 64.222C52.3594 65.7361 54.1657 69.3353 55.0688 71.4869C57.9641 78.3666 59.6774 86.2291 60.0094 94.1048L60.1024 96.3095L58.7875 96.7345C57.6719 97.0931 54.7368 97.797 54.3649 97.797C54.3118 97.797 54.2188 96.8275 54.1657 95.6322C53.6875 84.3033 52.0805 74.3556 49.2516 65.2314C48.9196 64.1556 48.6407 63.2392 48.6407 63.1994C48.6407 63.1595 49.1188 63.133 49.6899 63.133H50.7524L51.4297 64.222Z"/>
</mask>
<path d="M30.3789 35.2689L27.4571 36.0658L26.4211 37.0751C24.5086 38.9478 22.7157 41.272 21.1086 43.9548C20.2055 45.4423 20.086 45.7611 20.3782 45.9603C20.4711 46.0134 22.5696 47.1955 25.0399 48.59L29.5555 51.1134L29.8743 51.9767C30.0469 52.4548 30.6711 54.208 31.2555 55.8947C32.2782 58.8298 32.318 58.9626 32.1188 59.308C31.8797 59.7064 31.8133 62.19 32.0391 62.6017C32.1321 62.7876 32.0258 63.0798 31.4946 63.9431C31.1227 64.5541 30.2727 66.1744 29.5821 67.5423C25.518 75.6837 23.2735 84.7283 22.9282 94.397L22.8352 96.8275L23.1539 97.0533C23.6321 97.3853 26.4344 98.2486 28.2141 98.6072C29.675 98.8994 29.768 98.9392 29.8079 99.2447C29.861 99.6962 30.3922 99.9751 31.9063 100.374C37.0196 101.715 46.9805 101.715 52.0938 100.374C53.6211 99.9751 54.1391 99.6962 54.1922 99.2447C54.2321 98.9259 54.325 98.8994 55.7461 98.6205C57.4594 98.2884 60.368 97.3853 60.8461 97.0533L61.1649 96.8275L61.0719 94.397C60.793 86.508 59.3188 79.3494 56.4766 72.1111C55.5602 69.7736 53.8071 66.1744 52.6516 64.222C51.9875 63.1197 51.8547 62.8009 51.961 62.6017C52.1868 62.1767 52.1204 59.7064 51.8813 59.2814C51.6688 58.9361 51.6821 58.8564 52.2133 57.2759C52.5055 56.3728 53.143 54.6064 53.6079 53.3712L54.4446 51.1134L59.0133 48.5767C61.5235 47.1689 63.6352 45.9337 63.7149 45.8142C63.8743 45.5486 63.5422 44.9111 61.9883 42.547C60.6469 40.4884 59.1063 38.5626 57.6454 37.1415L56.543 36.0658L53.5282 35.2423L50.5133 34.4322L49.0789 34.897C46.3961 35.7603 44.9485 35.9728 41.8008 35.9595C38.693 35.9595 37.7899 35.8134 35.0141 34.9236C34.2039 34.658 33.4868 34.4455 33.4204 34.4587C33.3539 34.4587 31.986 34.8306 30.3789 35.2689ZM33.1813 36.5837C33.4602 37.7923 34.536 39.8908 35.5586 41.2455C38.5071 45.1501 43.8461 49.0947 50.7125 52.4548L52.4524 53.3048L51.5094 56.0939L50.5665 58.883H47.6047C44.829 58.883 44.6032 58.8697 44.2977 58.6173C43.9922 58.3783 43.7532 58.3517 42 58.3517C40.2469 58.3517 40.0079 58.3783 39.7024 58.6173C39.3969 58.8697 39.1711 58.883 36.3821 58.883H33.3938L33.0219 57.7806C32.8227 57.183 32.1321 55.1775 31.4813 53.3181C30.193 49.6259 29.7016 47.8861 29.1969 45.2697C28.8649 43.5033 28.4 40.0103 28.2539 38.0712L28.1743 36.9822L28.6789 36.8494C28.9579 36.7697 30.0204 36.4775 31.043 36.1986C32.0657 35.9064 32.9157 35.6939 32.9422 35.7072C32.9688 35.7337 33.075 36.1322 33.1813 36.5837ZM53.5415 36.358C54.7235 36.69 55.7329 36.9822 55.7727 37.0087C55.9852 37.2345 55.1618 43.5697 54.5375 46.4915C54.0993 48.5501 53.1165 51.9236 52.8907 52.1626C52.6516 52.4017 47.4188 49.6126 44.4172 47.647L42.9165 46.6642L44.0852 45.6947C47.9633 42.454 50.2477 39.2267 50.9516 36.0126C51.0047 35.8001 51.0977 35.6806 51.204 35.7072C51.2836 35.7337 52.3461 36.0392 53.5415 36.358ZM35.1735 36.0923C35.6782 36.265 36.7805 36.5439 37.6172 36.7166C38.9454 36.9955 39.5032 37.0353 41.8672 37.0353C44.8555 37.0353 46.1836 36.8494 48.5079 36.172C49.1985 35.9595 49.7961 35.8134 49.8227 35.8533C49.9422 35.9728 49.5438 37.1814 49.0391 38.2439C48.043 40.3025 45.8649 42.8525 43.3149 44.9376L42.0133 46.0001L40.9774 45.19C38.1618 42.972 35.4657 39.6783 34.5625 37.354C34.2172 36.4509 34.0579 35.7736 34.2039 35.7736C34.2305 35.7736 34.6688 35.9197 35.1735 36.0923ZM27.311 39.24C27.4836 41.8697 28.493 47.833 28.9977 49.1478C29.0641 49.3337 29.1039 49.5064 29.0774 49.533C29.0243 49.5861 21.7461 45.5884 21.5868 45.4158C21.4008 45.2431 23.8711 41.5244 25.3055 39.8244C26.1688 38.8017 27.0188 37.8986 27.1383 37.8986C27.1782 37.8986 27.2579 38.4962 27.311 39.24ZM57.486 38.4564C59.4649 40.5416 62.6922 45.1634 62.3735 45.4556C62.2008 45.615 54.9758 49.5994 54.9493 49.5595C54.936 49.533 55.0821 48.8423 55.2946 48.0056C55.9586 45.3361 56.7422 40.2095 56.7422 38.5228C56.7422 38.1775 56.7954 37.8986 56.8485 37.8986C56.9016 37.8986 57.1938 38.1509 57.486 38.4564ZM43.5938 61.008V62.6017H42H40.4063V61.008V59.4142H42H43.5938V61.008ZM39.3438 61.008V62.0705H36.1563H32.9688V61.008V59.9455H36.1563H39.3438V61.008ZM51.0313 61.008V62.0705H47.8438H44.6563V61.008V59.9455H47.8438H51.0313V61.008ZM35.3196 63.3587C35.293 63.4916 34.9477 64.6072 34.5758 65.8291C31.8664 74.7275 30.2594 84.7548 29.8344 95.4994C29.7946 96.7611 29.6883 97.797 29.6352 97.797C29.25 97.797 26.2485 97.0666 25.186 96.7212L23.9375 96.2962V95.4197C23.9375 93.9455 24.2032 90.3994 24.4688 88.3009C25.1727 82.7759 26.4477 77.7955 28.4797 72.5892C29.3696 70.3314 31.5211 65.9087 32.5704 64.222L33.2477 63.133H34.3235C35.2797 63.133 35.386 63.1595 35.3196 63.3587ZM39.7024 63.3986C40.0079 63.6376 40.2469 63.6642 42 63.6642C43.7664 63.6642 43.9922 63.6376 44.2977 63.3986C44.6032 63.1595 44.8024 63.133 46.0774 63.1595L47.4985 63.1994L48.0032 64.7931C50.2743 71.8986 52.0008 80.7837 52.6914 88.8322C52.9172 91.5681 53.1563 95.9642 53.1563 97.7439V98.9525L52.2 99.2314C47.3258 100.666 36.5414 100.666 31.7868 99.2314L30.8039 98.9392L30.8969 96.0837C31.1891 86.6673 32.3711 78.2205 34.6289 69.5744C35.1602 67.5158 36.3555 63.4783 36.5149 63.2259C36.5414 63.1728 37.2055 63.133 37.9758 63.133C39.1711 63.133 39.4235 63.1728 39.7024 63.3986ZM51.4297 64.222C52.3594 65.7361 54.1657 69.3353 55.0688 71.4869C57.9641 78.3666 59.6774 86.2291 60.0094 94.1048L60.1024 96.3095L58.7875 96.7345C57.6719 97.0931 54.7368 97.797 54.3649 97.797C54.3118 97.797 54.2188 96.8275 54.1657 95.6322C53.6875 84.3033 52.0805 74.3556 49.2516 65.2314C48.9196 64.1556 48.6407 63.2392 48.6407 63.1994C48.6407 63.1595 49.1188 63.133 49.6899 63.133H50.7524L51.4297 64.222Z" fill="white"/>
<path d="M30.3789 35.2689L27.4571 36.0658L26.4211 37.0751C24.5086 38.9478 22.7157 41.272 21.1086 43.9548C20.2055 45.4423 20.086 45.7611 20.3782 45.9603C20.4711 46.0134 22.5696 47.1955 25.0399 48.59L29.5555 51.1134L29.8743 51.9767C30.0469 52.4548 30.6711 54.208 31.2555 55.8947C32.2782 58.8298 32.318 58.9626 32.1188 59.308C31.8797 59.7064 31.8133 62.19 32.0391 62.6017C32.1321 62.7876 32.0258 63.0798 31.4946 63.9431C31.1227 64.5541 30.2727 66.1744 29.5821 67.5423C25.518 75.6837 23.2735 84.7283 22.9282 94.397L22.8352 96.8275L23.1539 97.0533C23.6321 97.3853 26.4344 98.2486 28.2141 98.6072C29.675 98.8994 29.768 98.9392 29.8079 99.2447C29.861 99.6962 30.3922 99.9751 31.9063 100.374C37.0196 101.715 46.9805 101.715 52.0938 100.374C53.6211 99.9751 54.1391 99.6962 54.1922 99.2447C54.2321 98.9259 54.325 98.8994 55.7461 98.6205C57.4594 98.2884 60.368 97.3853 60.8461 97.0533L61.1649 96.8275L61.0719 94.397C60.793 86.508 59.3188 79.3494 56.4766 72.1111C55.5602 69.7736 53.8071 66.1744 52.6516 64.222C51.9875 63.1197 51.8547 62.8009 51.961 62.6017C52.1868 62.1767 52.1204 59.7064 51.8813 59.2814C51.6688 58.9361 51.6821 58.8564 52.2133 57.2759C52.5055 56.3728 53.143 54.6064 53.6079 53.3712L54.4446 51.1134L59.0133 48.5767C61.5235 47.1689 63.6352 45.9337 63.7149 45.8142C63.8743 45.5486 63.5422 44.9111 61.9883 42.547C60.6469 40.4884 59.1063 38.5626 57.6454 37.1415L56.543 36.0658L53.5282 35.2423L50.5133 34.4322L49.0789 34.897C46.3961 35.7603 44.9485 35.9728 41.8008 35.9595C38.693 35.9595 37.7899 35.8134 35.0141 34.9236C34.2039 34.658 33.4868 34.4455 33.4204 34.4587C33.3539 34.4587 31.986 34.8306 30.3789 35.2689ZM33.1813 36.5837C33.4602 37.7923 34.536 39.8908 35.5586 41.2455C38.5071 45.1501 43.8461 49.0947 50.7125 52.4548L52.4524 53.3048L51.5094 56.0939L50.5665 58.883H47.6047C44.829 58.883 44.6032 58.8697 44.2977 58.6173C43.9922 58.3783 43.7532 58.3517 42 58.3517C40.2469 58.3517 40.0079 58.3783 39.7024 58.6173C39.3969 58.8697 39.1711 58.883 36.3821 58.883H33.3938L33.0219 57.7806C32.8227 57.183 32.1321 55.1775 31.4813 53.3181C30.193 49.6259 29.7016 47.8861 29.1969 45.2697C28.8649 43.5033 28.4 40.0103 28.2539 38.0712L28.1743 36.9822L28.6789 36.8494C28.9579 36.7697 30.0204 36.4775 31.043 36.1986C32.0657 35.9064 32.9157 35.6939 32.9422 35.7072C32.9688 35.7337 33.075 36.1322 33.1813 36.5837ZM53.5415 36.358C54.7235 36.69 55.7329 36.9822 55.7727 37.0087C55.9852 37.2345 55.1618 43.5697 54.5375 46.4915C54.0993 48.5501 53.1165 51.9236 52.8907 52.1626C52.6516 52.4017 47.4188 49.6126 44.4172 47.647L42.9165 46.6642L44.0852 45.6947C47.9633 42.454 50.2477 39.2267 50.9516 36.0126C51.0047 35.8001 51.0977 35.6806 51.204 35.7072C51.2836 35.7337 52.3461 36.0392 53.5415 36.358ZM35.1735 36.0923C35.6782 36.265 36.7805 36.5439 37.6172 36.7166C38.9454 36.9955 39.5032 37.0353 41.8672 37.0353C44.8555 37.0353 46.1836 36.8494 48.5079 36.172C49.1985 35.9595 49.7961 35.8134 49.8227 35.8533C49.9422 35.9728 49.5438 37.1814 49.0391 38.2439C48.043 40.3025 45.8649 42.8525 43.3149 44.9376L42.0133 46.0001L40.9774 45.19C38.1618 42.972 35.4657 39.6783 34.5625 37.354C34.2172 36.4509 34.0579 35.7736 34.2039 35.7736C34.2305 35.7736 34.6688 35.9197 35.1735 36.0923ZM27.311 39.24C27.4836 41.8697 28.493 47.833 28.9977 49.1478C29.0641 49.3337 29.1039 49.5064 29.0774 49.533C29.0243 49.5861 21.7461 45.5884 21.5868 45.4158C21.4008 45.2431 23.8711 41.5244 25.3055 39.8244C26.1688 38.8017 27.0188 37.8986 27.1383 37.8986C27.1782 37.8986 27.2579 38.4962 27.311 39.24ZM57.486 38.4564C59.4649 40.5416 62.6922 45.1634 62.3735 45.4556C62.2008 45.615 54.9758 49.5994 54.9493 49.5595C54.936 49.533 55.0821 48.8423 55.2946 48.0056C55.9586 45.3361 56.7422 40.2095 56.7422 38.5228C56.7422 38.1775 56.7954 37.8986 56.8485 37.8986C56.9016 37.8986 57.1938 38.1509 57.486 38.4564ZM43.5938 61.008V62.6017H42H40.4063V61.008V59.4142H42H43.5938V61.008ZM39.3438 61.008V62.0705H36.1563H32.9688V61.008V59.9455H36.1563H39.3438V61.008ZM51.0313 61.008V62.0705H47.8438H44.6563V61.008V59.9455H47.8438H51.0313V61.008ZM35.3196 63.3587C35.293 63.4916 34.9477 64.6072 34.5758 65.8291C31.8664 74.7275 30.2594 84.7548 29.8344 95.4994C29.7946 96.7611 29.6883 97.797 29.6352 97.797C29.25 97.797 26.2485 97.0666 25.186 96.7212L23.9375 96.2962V95.4197C23.9375 93.9455 24.2032 90.3994 24.4688 88.3009C25.1727 82.7759 26.4477 77.7955 28.4797 72.5892C29.3696 70.3314 31.5211 65.9087 32.5704 64.222L33.2477 63.133H34.3235C35.2797 63.133 35.386 63.1595 35.3196 63.3587ZM39.7024 63.3986C40.0079 63.6376 40.2469 63.6642 42 63.6642C43.7664 63.6642 43.9922 63.6376 44.2977 63.3986C44.6032 63.1595 44.8024 63.133 46.0774 63.1595L47.4985 63.1994L48.0032 64.7931C50.2743 71.8986 52.0008 80.7837 52.6914 88.8322C52.9172 91.5681 53.1563 95.9642 53.1563 97.7439V98.9525L52.2 99.2314C47.3258 100.666 36.5414 100.666 31.7868 99.2314L30.8039 98.9392L30.8969 96.0837C31.1891 86.6673 32.3711 78.2205 34.6289 69.5744C35.1602 67.5158 36.3555 63.4783 36.5149 63.2259C36.5414 63.1728 37.2055 63.133 37.9758 63.133C39.1711 63.133 39.4235 63.1728 39.7024 63.3986ZM51.4297 64.222C52.3594 65.7361 54.1657 69.3353 55.0688 71.4869C57.9641 78.3666 59.6774 86.2291 60.0094 94.1048L60.1024 96.3095L58.7875 96.7345C57.6719 97.0931 54.7368 97.797 54.3649 97.797C54.3118 97.797 54.2188 96.8275 54.1657 95.6322C53.6875 84.3033 52.0805 74.3556 49.2516 65.2314C48.9196 64.1556 48.6407 63.2392 48.6407 63.1994C48.6407 63.1595 49.1188 63.133 49.6899 63.133H50.7524L51.4297 64.222Z" stroke="white" mask="url(#path-2-outside-1_47_448)"/>
</g>
<g clip-path="url(#clip1_47_448)">
<mask id="path-3-outside-2_47_448" maskUnits="userSpaceOnUse" x="65.3633" y="29.7996" width="59" height="72" fill="black">
<rect fill="white" x="65.3633" y="29.7996" width="59" height="72"/>
<path d="M88.0273 31.3418C87.8359 31.4511 87.4258 31.5332 87.0977 31.5468C86.6465 31.5468 85.9219 31.8476 83.6113 32.996C80.2754 34.664 77.7461 35.8125 74.8613 36.9472C73.248 37.5761 72.7012 37.8632 72.1543 38.3554C71.416 39.0117 70.9102 39.7773 70.5957 40.7343C70.4453 41.1582 69.748 49.3339 68.2715 67.6406C65.9746 96.2832 66.084 94.3691 66.8769 95.1074C67.3144 95.5039 68.2988 95.6269 71.5117 95.6953C73.6309 95.7363 73.8086 95.7226 74.1777 95.4492C74.3828 95.2988 74.6562 94.957 74.793 94.6972C74.957 94.3554 75.3535 91.0468 76.2559 82.4062C76.9531 75.8984 77.541 70.5117 77.5684 70.4433C77.5957 70.3613 77.623 70.5253 77.623 70.7851C77.6367 71.0449 77.7051 73.205 77.7734 75.5703C77.9102 80.1093 77.8008 85.2089 77.4316 92.455C77.3086 94.6289 77.2539 96.5976 77.3086 96.83C77.5273 97.8554 78.2793 98.7714 79.2363 99.1679C79.4687 99.2773 80.207 99.5097 80.8769 99.7011C84.9922 100.904 88.0957 101.123 89.668 100.316C91.4727 99.4003 92.9082 96.6933 93.7148 92.7421C94.125 90.7461 94.8633 86.3027 94.8633 85.8652C94.8633 85.6875 94.9316 85.5507 95 85.5507C95.082 85.5507 95.1367 85.6875 95.1367 85.8652C95.1367 86.3027 95.875 90.7461 96.2852 92.7421C97.0918 96.6933 98.5273 99.4003 100.332 100.316C101.193 100.754 102.561 100.904 104.174 100.727C107.045 100.412 110.695 99.4003 111.584 98.6621C112.104 98.2382 112.527 97.5546 112.691 96.8574C112.732 96.6523 112.65 93.9863 112.486 90.9101C112.186 85.0039 112.104 77.1699 112.281 72.9316C112.35 71.5918 112.418 70.5117 112.432 70.539C112.459 70.5664 113.047 75.8984 113.73 82.4062C114.646 91.0332 115.043 94.3554 115.207 94.6972C115.344 94.957 115.617 95.2988 115.822 95.4492C116.191 95.7226 116.369 95.7363 118.488 95.6953C121.701 95.6269 122.686 95.5039 123.123 95.1074C123.916 94.3691 124.025 96.2968 121.715 67.5859C119.732 42.7851 119.582 41.1718 119.281 40.4199C118.926 39.5449 118.297 38.6425 117.668 38.123C117.449 37.9453 116.246 37.3847 114.988 36.8789C111.912 35.6347 109.219 34.4179 106.088 32.8593C104.078 31.8476 103.354 31.5468 102.93 31.5468C102.615 31.5468 102.191 31.4511 101.959 31.3281C101.371 31.0273 101.098 31.164 99.8262 32.3808C98.7187 33.4199 96.9414 34.705 95.6562 35.375L95 35.7168L94.3574 35.375C93.0586 34.6914 91.2812 33.4199 90.1738 32.3671C88.957 31.2187 88.5605 31.0273 88.0273 31.3418ZM89.5312 32.7226C90.4883 33.6933 92.1699 34.9648 93.4551 35.6757C94.0019 35.9765 94.4531 36.25 94.4531 36.291C94.4531 36.332 93.4824 37.6718 92.3066 39.2851C90.2012 42.1562 89.9004 42.457 89.5449 42.0332C89.3262 41.7597 88.7519 39.5039 88.4375 37.6582C88.1641 36.0585 88.041 32.2578 88.2598 32.0527C88.4785 31.8203 88.8477 32.0117 89.5312 32.7226ZM101.809 33.9394C101.85 36.0859 101.631 37.7812 101.002 40.2695C100.605 41.8964 100.441 42.2109 100.072 42.2109C99.9219 42.2109 99.0195 41.1035 97.6934 39.2851C96.5176 37.6718 95.5469 36.332 95.5469 36.291C95.5469 36.25 95.998 35.9765 96.5449 35.6757C97.8301 34.9648 99.5254 33.6933 100.469 32.7226C100.975 32.2031 101.316 31.957 101.494 31.9843C101.754 32.0253 101.768 32.1484 101.809 33.9394ZM87.3574 33.1191C87.3301 33.5703 87.3027 33.9394 87.2891 33.9531C87.0156 34.0625 82.2852 38.4101 82.1211 38.7109C81.5469 39.7226 81.9297 40.5976 83.3516 41.4863C83.9121 41.8554 84.4453 42.1835 84.5137 42.2246C84.5957 42.2793 83.8164 43.3457 82.791 44.5898C80.8496 46.9687 80.6172 47.4199 80.8906 48.1855C80.959 48.4042 84.0215 53.5175 87.6719 59.5605L94.3164 70.539L94.166 71.1816C94.084 71.5507 94.0566 72.4257 94.0977 73.3144L94.1797 74.8183L93.7422 75.0918C93.0449 75.5293 92.7441 76.0488 92.7441 76.8007C92.7441 77.621 93.0859 78.1269 93.8652 78.496C94.3711 78.7421 94.4258 78.8242 94.5078 79.371C94.8086 81.5449 94.166 87.1777 93.0039 92.7011C92.1836 96.5566 90.9121 98.9218 89.1894 99.7148C87.918 100.316 85.2383 100.125 81.7383 99.2089C79.1543 98.539 78.416 98.0468 78.0469 96.789C77.9922 96.5566 78.0469 94.3007 78.1973 91.416C78.5664 84.1835 78.5254 69.4179 78.1152 65.5214C78.0742 65.1386 77.0488 58.8496 75.8457 51.5351C74.6426 44.207 73.6719 38.205 73.6992 38.1914C73.7129 38.1777 74.6289 37.7949 75.7227 37.3574C78.1562 36.3867 82.3535 34.4726 84.8555 33.1875C85.9766 32.6132 86.8652 32.2441 87.0703 32.2714C87.3984 32.2988 87.4121 32.3261 87.3574 33.1191ZM105.24 33.2421C107.934 34.5957 111.857 36.4003 114.277 37.3574C115.371 37.7949 116.273 38.1777 116.301 38.1914C116.328 38.205 115.357 44.248 114.127 51.6035L111.912 64.9746L111.707 69.2128C111.42 75.4746 111.447 84.9902 111.789 91.2793C111.953 94.2734 112.008 96.5566 111.953 96.789C111.584 98.0468 110.846 98.539 108.262 99.2089C106.006 99.8105 104.461 100.043 102.875 100.043C101.713 100.043 101.385 99.9882 100.811 99.7148C99.0879 98.9218 97.8164 96.5566 96.9961 92.7011C96.2305 89.0371 95.6699 85.1953 95.3555 81.2441C95.1641 78.9472 95.1641 78.7695 95.3828 78.6464C95.8887 78.3457 96.5039 77.5937 96.5859 77.1425C96.75 76.2675 96.1484 75.2421 95.2598 74.9003C94.918 74.7773 94.9043 74.7089 94.8086 73.4648L94.7266 72.1386L101.904 60.2578C105.855 53.7089 109.123 48.1855 109.164 47.9531C109.301 47.2832 109.027 46.8046 107.154 44.5214C106.156 43.3183 105.404 42.2793 105.486 42.2382C105.555 42.1835 106.088 41.8554 106.648 41.4863C107.4 41.0214 107.756 40.707 107.92 40.3515C108.193 39.7636 108.139 38.9707 107.77 38.4921C107.578 38.246 104.051 35.0468 102.957 34.1445C102.711 33.9394 102.437 32.4902 102.615 32.3125C102.82 32.1074 103.381 32.2988 105.24 33.2421ZM87.6309 37.0839C87.7129 37.6855 87.9863 39.0937 88.2598 40.2148C88.7656 42.3339 89.0527 42.8945 89.6543 42.8945C89.832 42.8945 89.9414 43.0175 89.9961 43.2636C90.4883 45.6699 94.5898 68.4335 94.5898 68.8027C94.5898 69.0625 94.5488 69.2812 94.4805 69.2812C94.3711 69.2812 81.7109 48.3496 81.5605 47.9121C81.4102 47.4882 81.6836 47.0507 83.6523 44.6718C84.7051 43.3867 85.5664 42.2656 85.5664 42.1972C85.5664 42.1289 84.9512 41.6777 84.2129 41.1855C81.916 39.7089 81.9297 39.6132 85.0605 36.8515L87.4121 34.7734L87.4394 35.375C87.4668 35.7168 87.5488 36.4824 87.6309 37.0839ZM104.967 36.8789C106.375 38.123 107.305 39.0527 107.359 39.2578C107.523 39.9003 107.223 40.2695 105.801 41.1855C105.049 41.6777 104.434 42.1289 104.434 42.1972C104.434 42.2656 105.295 43.3867 106.348 44.6718C108.316 47.0507 108.59 47.4882 108.439 47.9121C108.33 48.2539 95.2187 69.9648 95.1777 69.9101C95.1367 69.8691 99.6621 44.9043 100.004 43.291C100.059 43.0175 100.182 42.9082 100.469 42.8398C100.687 42.7988 100.961 42.621 101.07 42.457C101.521 41.746 102.52 37.0293 102.52 35.539C102.52 35.1562 102.547 34.8281 102.588 34.8281C102.629 34.8281 103.709 35.7441 104.967 36.8789ZM96.0801 38.2734L97.1055 39.6679L96.4492 40.9121L95.793 42.1562L96.6269 47.6113L97.4746 53.08L96.2715 59.6699C95.6016 63.3066 95.041 66.2734 95 66.2734C94.959 66.2734 94.3848 63.3066 93.7285 59.6699L92.5254 53.08L93.373 47.625L94.207 42.1835L93.5508 40.9257L92.8945 39.6679L93.9199 38.2734C94.4805 37.5078 94.959 36.8925 95 36.8925C95.041 36.8925 95.5195 37.5078 96.0801 38.2734ZM75.1074 51.9179L77.3906 65.1113L75.8594 79.5351C75.0254 87.4648 74.2734 94.1367 74.1914 94.3554C73.9316 95.0253 73.5215 95.0937 70.459 94.957C67.2051 94.8203 67.0684 94.7656 67 93.6445C66.9727 93.2617 67.8887 81.3398 69.0234 67.1484C71.3066 38.7246 71.1016 40.5156 72.1953 39.2851C72.4961 38.9296 72.7695 38.6562 72.7832 38.6835C72.8105 38.7109 73.8496 44.6582 75.1074 51.9179ZM118.639 40.6113C118.857 41.2402 119.213 45.123 120.977 67.1484C122.111 81.3398 123.027 93.2617 123 93.6445C122.932 94.7656 122.809 94.8203 119.473 94.957C116.383 95.0937 116.082 95.039 115.809 94.3418C115.727 94.1367 114.975 87.4648 114.141 79.5351L112.609 65.1113L114.811 52.3281C116.027 45.3007 117.066 39.3261 117.107 39.0664L117.189 38.6015L117.777 39.2441C118.092 39.5996 118.488 40.2148 118.639 40.6113ZM93.0039 41.3632L93.4687 42.2793L92.8125 46.5175C92.457 48.8554 92.1289 50.6601 92.0879 50.5507C92.0469 50.4414 91.6914 48.6367 91.3086 46.5585L90.625 42.7714L91.4727 41.5957C91.9512 40.9668 92.375 40.4335 92.4297 40.4335C92.4844 40.4335 92.7441 40.8437 93.0039 41.3632ZM98.541 41.6367L99.375 42.7578L98.6914 46.5585C98.3086 48.6367 97.9531 50.4414 97.9121 50.5507C97.8711 50.6601 97.543 48.8554 97.1875 46.5175L96.5312 42.2793L97.0098 41.3496C97.2559 40.83 97.5293 40.4335 97.584 40.4609C97.6523 40.4882 98.0762 41.0078 98.541 41.6367ZM95.4375 75.8437C96.2988 76.5136 95.7519 78.0312 94.6582 78.0312C93.8789 78.0312 93.209 77.0742 93.4824 76.3496C93.7695 75.5976 94.7949 75.3242 95.4375 75.8437Z"/>
</mask>
<path d="M88.0273 31.3418C87.8359 31.4511 87.4258 31.5332 87.0977 31.5468C86.6465 31.5468 85.9219 31.8476 83.6113 32.996C80.2754 34.664 77.7461 35.8125 74.8613 36.9472C73.248 37.5761 72.7012 37.8632 72.1543 38.3554C71.416 39.0117 70.9102 39.7773 70.5957 40.7343C70.4453 41.1582 69.748 49.3339 68.2715 67.6406C65.9746 96.2832 66.084 94.3691 66.8769 95.1074C67.3144 95.5039 68.2988 95.6269 71.5117 95.6953C73.6309 95.7363 73.8086 95.7226 74.1777 95.4492C74.3828 95.2988 74.6562 94.957 74.793 94.6972C74.957 94.3554 75.3535 91.0468 76.2559 82.4062C76.9531 75.8984 77.541 70.5117 77.5684 70.4433C77.5957 70.3613 77.623 70.5253 77.623 70.7851C77.6367 71.0449 77.7051 73.205 77.7734 75.5703C77.9102 80.1093 77.8008 85.2089 77.4316 92.455C77.3086 94.6289 77.2539 96.5976 77.3086 96.83C77.5273 97.8554 78.2793 98.7714 79.2363 99.1679C79.4687 99.2773 80.207 99.5097 80.8769 99.7011C84.9922 100.904 88.0957 101.123 89.668 100.316C91.4727 99.4003 92.9082 96.6933 93.7148 92.7421C94.125 90.7461 94.8633 86.3027 94.8633 85.8652C94.8633 85.6875 94.9316 85.5507 95 85.5507C95.082 85.5507 95.1367 85.6875 95.1367 85.8652C95.1367 86.3027 95.875 90.7461 96.2852 92.7421C97.0918 96.6933 98.5273 99.4003 100.332 100.316C101.193 100.754 102.561 100.904 104.174 100.727C107.045 100.412 110.695 99.4003 111.584 98.6621C112.104 98.2382 112.527 97.5546 112.691 96.8574C112.732 96.6523 112.65 93.9863 112.486 90.9101C112.186 85.0039 112.104 77.1699 112.281 72.9316C112.35 71.5918 112.418 70.5117 112.432 70.539C112.459 70.5664 113.047 75.8984 113.73 82.4062C114.646 91.0332 115.043 94.3554 115.207 94.6972C115.344 94.957 115.617 95.2988 115.822 95.4492C116.191 95.7226 116.369 95.7363 118.488 95.6953C121.701 95.6269 122.686 95.5039 123.123 95.1074C123.916 94.3691 124.025 96.2968 121.715 67.5859C119.732 42.7851 119.582 41.1718 119.281 40.4199C118.926 39.5449 118.297 38.6425 117.668 38.123C117.449 37.9453 116.246 37.3847 114.988 36.8789C111.912 35.6347 109.219 34.4179 106.088 32.8593C104.078 31.8476 103.354 31.5468 102.93 31.5468C102.615 31.5468 102.191 31.4511 101.959 31.3281C101.371 31.0273 101.098 31.164 99.8262 32.3808C98.7187 33.4199 96.9414 34.705 95.6562 35.375L95 35.7168L94.3574 35.375C93.0586 34.6914 91.2812 33.4199 90.1738 32.3671C88.957 31.2187 88.5605 31.0273 88.0273 31.3418ZM89.5312 32.7226C90.4883 33.6933 92.1699 34.9648 93.4551 35.6757C94.0019 35.9765 94.4531 36.25 94.4531 36.291C94.4531 36.332 93.4824 37.6718 92.3066 39.2851C90.2012 42.1562 89.9004 42.457 89.5449 42.0332C89.3262 41.7597 88.7519 39.5039 88.4375 37.6582C88.1641 36.0585 88.041 32.2578 88.2598 32.0527C88.4785 31.8203 88.8477 32.0117 89.5312 32.7226ZM101.809 33.9394C101.85 36.0859 101.631 37.7812 101.002 40.2695C100.605 41.8964 100.441 42.2109 100.072 42.2109C99.9219 42.2109 99.0195 41.1035 97.6934 39.2851C96.5176 37.6718 95.5469 36.332 95.5469 36.291C95.5469 36.25 95.998 35.9765 96.5449 35.6757C97.8301 34.9648 99.5254 33.6933 100.469 32.7226C100.975 32.2031 101.316 31.957 101.494 31.9843C101.754 32.0253 101.768 32.1484 101.809 33.9394ZM87.3574 33.1191C87.3301 33.5703 87.3027 33.9394 87.2891 33.9531C87.0156 34.0625 82.2852 38.4101 82.1211 38.7109C81.5469 39.7226 81.9297 40.5976 83.3516 41.4863C83.9121 41.8554 84.4453 42.1835 84.5137 42.2246C84.5957 42.2793 83.8164 43.3457 82.791 44.5898C80.8496 46.9687 80.6172 47.4199 80.8906 48.1855C80.959 48.4042 84.0215 53.5175 87.6719 59.5605L94.3164 70.539L94.166 71.1816C94.084 71.5507 94.0566 72.4257 94.0977 73.3144L94.1797 74.8183L93.7422 75.0918C93.0449 75.5293 92.7441 76.0488 92.7441 76.8007C92.7441 77.621 93.0859 78.1269 93.8652 78.496C94.3711 78.7421 94.4258 78.8242 94.5078 79.371C94.8086 81.5449 94.166 87.1777 93.0039 92.7011C92.1836 96.5566 90.9121 98.9218 89.1894 99.7148C87.918 100.316 85.2383 100.125 81.7383 99.2089C79.1543 98.539 78.416 98.0468 78.0469 96.789C77.9922 96.5566 78.0469 94.3007 78.1973 91.416C78.5664 84.1835 78.5254 69.4179 78.1152 65.5214C78.0742 65.1386 77.0488 58.8496 75.8457 51.5351C74.6426 44.207 73.6719 38.205 73.6992 38.1914C73.7129 38.1777 74.6289 37.7949 75.7227 37.3574C78.1562 36.3867 82.3535 34.4726 84.8555 33.1875C85.9766 32.6132 86.8652 32.2441 87.0703 32.2714C87.3984 32.2988 87.4121 32.3261 87.3574 33.1191ZM105.24 33.2421C107.934 34.5957 111.857 36.4003 114.277 37.3574C115.371 37.7949 116.273 38.1777 116.301 38.1914C116.328 38.205 115.357 44.248 114.127 51.6035L111.912 64.9746L111.707 69.2128C111.42 75.4746 111.447 84.9902 111.789 91.2793C111.953 94.2734 112.008 96.5566 111.953 96.789C111.584 98.0468 110.846 98.539 108.262 99.2089C106.006 99.8105 104.461 100.043 102.875 100.043C101.713 100.043 101.385 99.9882 100.811 99.7148C99.0879 98.9218 97.8164 96.5566 96.9961 92.7011C96.2305 89.0371 95.6699 85.1953 95.3555 81.2441C95.1641 78.9472 95.1641 78.7695 95.3828 78.6464C95.8887 78.3457 96.5039 77.5937 96.5859 77.1425C96.75 76.2675 96.1484 75.2421 95.2598 74.9003C94.918 74.7773 94.9043 74.7089 94.8086 73.4648L94.7266 72.1386L101.904 60.2578C105.855 53.7089 109.123 48.1855 109.164 47.9531C109.301 47.2832 109.027 46.8046 107.154 44.5214C106.156 43.3183 105.404 42.2793 105.486 42.2382C105.555 42.1835 106.088 41.8554 106.648 41.4863C107.4 41.0214 107.756 40.707 107.92 40.3515C108.193 39.7636 108.139 38.9707 107.77 38.4921C107.578 38.246 104.051 35.0468 102.957 34.1445C102.711 33.9394 102.437 32.4902 102.615 32.3125C102.82 32.1074 103.381 32.2988 105.24 33.2421ZM87.6309 37.0839C87.7129 37.6855 87.9863 39.0937 88.2598 40.2148C88.7656 42.3339 89.0527 42.8945 89.6543 42.8945C89.832 42.8945 89.9414 43.0175 89.9961 43.2636C90.4883 45.6699 94.5898 68.4335 94.5898 68.8027C94.5898 69.0625 94.5488 69.2812 94.4805 69.2812C94.3711 69.2812 81.7109 48.3496 81.5605 47.9121C81.4102 47.4882 81.6836 47.0507 83.6523 44.6718C84.7051 43.3867 85.5664 42.2656 85.5664 42.1972C85.5664 42.1289 84.9512 41.6777 84.2129 41.1855C81.916 39.7089 81.9297 39.6132 85.0605 36.8515L87.4121 34.7734L87.4394 35.375C87.4668 35.7168 87.5488 36.4824 87.6309 37.0839ZM104.967 36.8789C106.375 38.123 107.305 39.0527 107.359 39.2578C107.523 39.9003 107.223 40.2695 105.801 41.1855C105.049 41.6777 104.434 42.1289 104.434 42.1972C104.434 42.2656 105.295 43.3867 106.348 44.6718C108.316 47.0507 108.59 47.4882 108.439 47.9121C108.33 48.2539 95.2187 69.9648 95.1777 69.9101C95.1367 69.8691 99.6621 44.9043 100.004 43.291C100.059 43.0175 100.182 42.9082 100.469 42.8398C100.687 42.7988 100.961 42.621 101.07 42.457C101.521 41.746 102.52 37.0293 102.52 35.539C102.52 35.1562 102.547 34.8281 102.588 34.8281C102.629 34.8281 103.709 35.7441 104.967 36.8789ZM96.0801 38.2734L97.1055 39.6679L96.4492 40.9121L95.793 42.1562L96.6269 47.6113L97.4746 53.08L96.2715 59.6699C95.6016 63.3066 95.041 66.2734 95 66.2734C94.959 66.2734 94.3848 63.3066 93.7285 59.6699L92.5254 53.08L93.373 47.625L94.207 42.1835L93.5508 40.9257L92.8945 39.6679L93.9199 38.2734C94.4805 37.5078 94.959 36.8925 95 36.8925C95.041 36.8925 95.5195 37.5078 96.0801 38.2734ZM75.1074 51.9179L77.3906 65.1113L75.8594 79.5351C75.0254 87.4648 74.2734 94.1367 74.1914 94.3554C73.9316 95.0253 73.5215 95.0937 70.459 94.957C67.2051 94.8203 67.0684 94.7656 67 93.6445C66.9727 93.2617 67.8887 81.3398 69.0234 67.1484C71.3066 38.7246 71.1016 40.5156 72.1953 39.2851C72.4961 38.9296 72.7695 38.6562 72.7832 38.6835C72.8105 38.7109 73.8496 44.6582 75.1074 51.9179ZM118.639 40.6113C118.857 41.2402 119.213 45.123 120.977 67.1484C122.111 81.3398 123.027 93.2617 123 93.6445C122.932 94.7656 122.809 94.8203 119.473 94.957C116.383 95.0937 116.082 95.039 115.809 94.3418C115.727 94.1367 114.975 87.4648 114.141 79.5351L112.609 65.1113L114.811 52.3281C116.027 45.3007 117.066 39.3261 117.107 39.0664L117.189 38.6015L117.777 39.2441C118.092 39.5996 118.488 40.2148 118.639 40.6113ZM93.0039 41.3632L93.4687 42.2793L92.8125 46.5175C92.457 48.8554 92.1289 50.6601 92.0879 50.5507C92.0469 50.4414 91.6914 48.6367 91.3086 46.5585L90.625 42.7714L91.4727 41.5957C91.9512 40.9668 92.375 40.4335 92.4297 40.4335C92.4844 40.4335 92.7441 40.8437 93.0039 41.3632ZM98.541 41.6367L99.375 42.7578L98.6914 46.5585C98.3086 48.6367 97.9531 50.4414 97.9121 50.5507C97.8711 50.6601 97.543 48.8554 97.1875 46.5175L96.5312 42.2793L97.0098 41.3496C97.2559 40.83 97.5293 40.4335 97.584 40.4609C97.6523 40.4882 98.0762 41.0078 98.541 41.6367ZM95.4375 75.8437C96.2988 76.5136 95.7519 78.0312 94.6582 78.0312C93.8789 78.0312 93.209 77.0742 93.4824 76.3496C93.7695 75.5976 94.7949 75.3242 95.4375 75.8437Z" fill="white"/>
<path d="M88.0273 31.3418C87.8359 31.4511 87.4258 31.5332 87.0977 31.5468C86.6465 31.5468 85.9219 31.8476 83.6113 32.996C80.2754 34.664 77.7461 35.8125 74.8613 36.9472C73.248 37.5761 72.7012 37.8632 72.1543 38.3554C71.416 39.0117 70.9102 39.7773 70.5957 40.7343C70.4453 41.1582 69.748 49.3339 68.2715 67.6406C65.9746 96.2832 66.084 94.3691 66.8769 95.1074C67.3144 95.5039 68.2988 95.6269 71.5117 95.6953C73.6309 95.7363 73.8086 95.7226 74.1777 95.4492C74.3828 95.2988 74.6562 94.957 74.793 94.6972C74.957 94.3554 75.3535 91.0468 76.2559 82.4062C76.9531 75.8984 77.541 70.5117 77.5684 70.4433C77.5957 70.3613 77.623 70.5253 77.623 70.7851C77.6367 71.0449 77.7051 73.205 77.7734 75.5703C77.9102 80.1093 77.8008 85.2089 77.4316 92.455C77.3086 94.6289 77.2539 96.5976 77.3086 96.83C77.5273 97.8554 78.2793 98.7714 79.2363 99.1679C79.4687 99.2773 80.207 99.5097 80.8769 99.7011C84.9922 100.904 88.0957 101.123 89.668 100.316C91.4727 99.4003 92.9082 96.6933 93.7148 92.7421C94.125 90.7461 94.8633 86.3027 94.8633 85.8652C94.8633 85.6875 94.9316 85.5507 95 85.5507C95.082 85.5507 95.1367 85.6875 95.1367 85.8652C95.1367 86.3027 95.875 90.7461 96.2852 92.7421C97.0918 96.6933 98.5273 99.4003 100.332 100.316C101.193 100.754 102.561 100.904 104.174 100.727C107.045 100.412 110.695 99.4003 111.584 98.6621C112.104 98.2382 112.527 97.5546 112.691 96.8574C112.732 96.6523 112.65 93.9863 112.486 90.9101C112.186 85.0039 112.104 77.1699 112.281 72.9316C112.35 71.5918 112.418 70.5117 112.432 70.539C112.459 70.5664 113.047 75.8984 113.73 82.4062C114.646 91.0332 115.043 94.3554 115.207 94.6972C115.344 94.957 115.617 95.2988 115.822 95.4492C116.191 95.7226 116.369 95.7363 118.488 95.6953C121.701 95.6269 122.686 95.5039 123.123 95.1074C123.916 94.3691 124.025 96.2968 121.715 67.5859C119.732 42.7851 119.582 41.1718 119.281 40.4199C118.926 39.5449 118.297 38.6425 117.668 38.123C117.449 37.9453 116.246 37.3847 114.988 36.8789C111.912 35.6347 109.219 34.4179 106.088 32.8593C104.078 31.8476 103.354 31.5468 102.93 31.5468C102.615 31.5468 102.191 31.4511 101.959 31.3281C101.371 31.0273 101.098 31.164 99.8262 32.3808C98.7187 33.4199 96.9414 34.705 95.6562 35.375L95 35.7168L94.3574 35.375C93.0586 34.6914 91.2812 33.4199 90.1738 32.3671C88.957 31.2187 88.5605 31.0273 88.0273 31.3418ZM89.5312 32.7226C90.4883 33.6933 92.1699 34.9648 93.4551 35.6757C94.0019 35.9765 94.4531 36.25 94.4531 36.291C94.4531 36.332 93.4824 37.6718 92.3066 39.2851C90.2012 42.1562 89.9004 42.457 89.5449 42.0332C89.3262 41.7597 88.7519 39.5039 88.4375 37.6582C88.1641 36.0585 88.041 32.2578 88.2598 32.0527C88.4785 31.8203 88.8477 32.0117 89.5312 32.7226ZM101.809 33.9394C101.85 36.0859 101.631 37.7812 101.002 40.2695C100.605 41.8964 100.441 42.2109 100.072 42.2109C99.9219 42.2109 99.0195 41.1035 97.6934 39.2851C96.5176 37.6718 95.5469 36.332 95.5469 36.291C95.5469 36.25 95.998 35.9765 96.5449 35.6757C97.8301 34.9648 99.5254 33.6933 100.469 32.7226C100.975 32.2031 101.316 31.957 101.494 31.9843C101.754 32.0253 101.768 32.1484 101.809 33.9394ZM87.3574 33.1191C87.3301 33.5703 87.3027 33.9394 87.2891 33.9531C87.0156 34.0625 82.2852 38.4101 82.1211 38.7109C81.5469 39.7226 81.9297 40.5976 83.3516 41.4863C83.9121 41.8554 84.4453 42.1835 84.5137 42.2246C84.5957 42.2793 83.8164 43.3457 82.791 44.5898C80.8496 46.9687 80.6172 47.4199 80.8906 48.1855C80.959 48.4042 84.0215 53.5175 87.6719 59.5605L94.3164 70.539L94.166 71.1816C94.084 71.5507 94.0566 72.4257 94.0977 73.3144L94.1797 74.8183L93.7422 75.0918C93.0449 75.5293 92.7441 76.0488 92.7441 76.8007C92.7441 77.621 93.0859 78.1269 93.8652 78.496C94.3711 78.7421 94.4258 78.8242 94.5078 79.371C94.8086 81.5449 94.166 87.1777 93.0039 92.7011C92.1836 96.5566 90.9121 98.9218 89.1894 99.7148C87.918 100.316 85.2383 100.125 81.7383 99.2089C79.1543 98.539 78.416 98.0468 78.0469 96.789C77.9922 96.5566 78.0469 94.3007 78.1973 91.416C78.5664 84.1835 78.5254 69.4179 78.1152 65.5214C78.0742 65.1386 77.0488 58.8496 75.8457 51.5351C74.6426 44.207 73.6719 38.205 73.6992 38.1914C73.7129 38.1777 74.6289 37.7949 75.7227 37.3574C78.1562 36.3867 82.3535 34.4726 84.8555 33.1875C85.9766 32.6132 86.8652 32.2441 87.0703 32.2714C87.3984 32.2988 87.4121 32.3261 87.3574 33.1191ZM105.24 33.2421C107.934 34.5957 111.857 36.4003 114.277 37.3574C115.371 37.7949 116.273 38.1777 116.301 38.1914C116.328 38.205 115.357 44.248 114.127 51.6035L111.912 64.9746L111.707 69.2128C111.42 75.4746 111.447 84.9902 111.789 91.2793C111.953 94.2734 112.008 96.5566 111.953 96.789C111.584 98.0468 110.846 98.539 108.262 99.2089C106.006 99.8105 104.461 100.043 102.875 100.043C101.713 100.043 101.385 99.9882 100.811 99.7148C99.0879 98.9218 97.8164 96.5566 96.9961 92.7011C96.2305 89.0371 95.6699 85.1953 95.3555 81.2441C95.1641 78.9472 95.1641 78.7695 95.3828 78.6464C95.8887 78.3457 96.5039 77.5937 96.5859 77.1425C96.75 76.2675 96.1484 75.2421 95.2598 74.9003C94.918 74.7773 94.9043 74.7089 94.8086 73.4648L94.7266 72.1386L101.904 60.2578C105.855 53.7089 109.123 48.1855 109.164 47.9531C109.301 47.2832 109.027 46.8046 107.154 44.5214C106.156 43.3183 105.404 42.2793 105.486 42.2382C105.555 42.1835 106.088 41.8554 106.648 41.4863C107.4 41.0214 107.756 40.707 107.92 40.3515C108.193 39.7636 108.139 38.9707 107.77 38.4921C107.578 38.246 104.051 35.0468 102.957 34.1445C102.711 33.9394 102.437 32.4902 102.615 32.3125C102.82 32.1074 103.381 32.2988 105.24 33.2421ZM87.6309 37.0839C87.7129 37.6855 87.9863 39.0937 88.2598 40.2148C88.7656 42.3339 89.0527 42.8945 89.6543 42.8945C89.832 42.8945 89.9414 43.0175 89.9961 43.2636C90.4883 45.6699 94.5898 68.4335 94.5898 68.8027C94.5898 69.0625 94.5488 69.2812 94.4805 69.2812C94.3711 69.2812 81.7109 48.3496 81.5605 47.9121C81.4102 47.4882 81.6836 47.0507 83.6523 44.6718C84.7051 43.3867 85.5664 42.2656 85.5664 42.1972C85.5664 42.1289 84.9512 41.6777 84.2129 41.1855C81.916 39.7089 81.9297 39.6132 85.0605 36.8515L87.4121 34.7734L87.4394 35.375C87.4668 35.7168 87.5488 36.4824 87.6309 37.0839ZM104.967 36.8789C106.375 38.123 107.305 39.0527 107.359 39.2578C107.523 39.9003 107.223 40.2695 105.801 41.1855C105.049 41.6777 104.434 42.1289 104.434 42.1972C104.434 42.2656 105.295 43.3867 106.348 44.6718C108.316 47.0507 108.59 47.4882 108.439 47.9121C108.33 48.2539 95.2187 69.9648 95.1777 69.9101C95.1367 69.8691 99.6621 44.9043 100.004 43.291C100.059 43.0175 100.182 42.9082 100.469 42.8398C100.687 42.7988 100.961 42.621 101.07 42.457C101.521 41.746 102.52 37.0293 102.52 35.539C102.52 35.1562 102.547 34.8281 102.588 34.8281C102.629 34.8281 103.709 35.7441 104.967 36.8789ZM96.0801 38.2734L97.1055 39.6679L96.4492 40.9121L95.793 42.1562L96.6269 47.6113L97.4746 53.08L96.2715 59.6699C95.6016 63.3066 95.041 66.2734 95 66.2734C94.959 66.2734 94.3848 63.3066 93.7285 59.6699L92.5254 53.08L93.373 47.625L94.207 42.1835L93.5508 40.9257L92.8945 39.6679L93.9199 38.2734C94.4805 37.5078 94.959 36.8925 95 36.8925C95.041 36.8925 95.5195 37.5078 96.0801 38.2734ZM75.1074 51.9179L77.3906 65.1113L75.8594 79.5351C75.0254 87.4648 74.2734 94.1367 74.1914 94.3554C73.9316 95.0253 73.5215 95.0937 70.459 94.957C67.2051 94.8203 67.0684 94.7656 67 93.6445C66.9727 93.2617 67.8887 81.3398 69.0234 67.1484C71.3066 38.7246 71.1016 40.5156 72.1953 39.2851C72.4961 38.9296 72.7695 38.6562 72.7832 38.6835C72.8105 38.7109 73.8496 44.6582 75.1074 51.9179ZM118.639 40.6113C118.857 41.2402 119.213 45.123 120.977 67.1484C122.111 81.3398 123.027 93.2617 123 93.6445C122.932 94.7656 122.809 94.8203 119.473 94.957C116.383 95.0937 116.082 95.039 115.809 94.3418C115.727 94.1367 114.975 87.4648 114.141 79.5351L112.609 65.1113L114.811 52.3281C116.027 45.3007 117.066 39.3261 117.107 39.0664L117.189 38.6015L117.777 39.2441C118.092 39.5996 118.488 40.2148 118.639 40.6113ZM93.0039 41.3632L93.4687 42.2793L92.8125 46.5175C92.457 48.8554 92.1289 50.6601 92.0879 50.5507C92.0469 50.4414 91.6914 48.6367 91.3086 46.5585L90.625 42.7714L91.4727 41.5957C91.9512 40.9668 92.375 40.4335 92.4297 40.4335C92.4844 40.4335 92.7441 40.8437 93.0039 41.3632ZM98.541 41.6367L99.375 42.7578L98.6914 46.5585C98.3086 48.6367 97.9531 50.4414 97.9121 50.5507C97.8711 50.6601 97.543 48.8554 97.1875 46.5175L96.5312 42.2793L97.0098 41.3496C97.2559 40.83 97.5293 40.4335 97.584 40.4609C97.6523 40.4882 98.0762 41.0078 98.541 41.6367ZM95.4375 75.8437C96.2988 76.5136 95.7519 78.0312 94.6582 78.0312C93.8789 78.0312 93.209 77.0742 93.4824 76.3496C93.7695 75.5976 94.7949 75.3242 95.4375 75.8437Z" stroke="white" mask="url(#path-3-outside-2_47_448)"/>
</g>
<defs>
<linearGradient id="paint0_linear_47_448" x1="70" y1="0" x2="70" y2="140" gradientUnits="userSpaceOnUse">
<stop stop-color="#BB8C56"/>
<stop offset="1" stop-color="#6C4A22"/>
</linearGradient>
<clipPath id="clip0_47_448">
<rect width="68" height="68" fill="white" transform="translate(8 33.9143)"/>
</clipPath>
<clipPath id="clip1_47_448">
<rect width="70" height="70" fill="white" transform="translate(60 31)"/>
</clipPath>
</defs>
</svg>
