<svg width="90" height="70" viewBox="0 0 90 70" fill="none" xmlns="http://www.w3.org/2000/svg">
<path d="M0 30.4839C0 13.7372 13.5759 0.161316 30.3226 0.161316H89.3226V38.8387C89.3226 55.5854 75.7467 69.1613 59 69.1613H0V30.4839Z" fill="#32570C"/>
<path d="M48.5162 49.0736C48.6374 49.0736 48.7587 49.0736 48.88 49.0736V49.3768C48.314 49.4577 47.6772 49.4981 46.9697 49.4981C46.2824 49.4981 45.4233 49.3465 44.3923 49.0433C43.3815 48.74 42.4617 48.174 41.6329 47.3452C39.9349 45.6471 38.9039 43.4437 38.54 40.7349L36.6903 27.2413L30.3833 41.4929C29.8172 42.726 29.4736 43.757 29.3523 44.5858H29.0491L21.1955 27.5142L19.8613 42.5845C19.8209 42.9282 19.922 43.2314 20.1645 43.4942C20.4273 43.757 20.7103 43.8884 21.0136 43.8884H21.4987V44.1613H15.6162V43.8581H16.1013C16.6471 43.8581 17.1222 43.6964 17.5265 43.3729C17.951 43.0293 18.2138 42.5845 18.3149 42.0387L20.2252 25.4826C18.4463 21.9854 16.3136 20.2368 13.8271 20.2368C13.6048 20.2368 13.3723 20.2469 13.1297 20.2671V19.9639C13.6755 19.8224 14.1202 19.7516 14.4639 19.7516C14.8076 19.7516 15.1815 19.7719 15.5858 19.8123C15.9901 19.8325 16.4652 19.9235 17.011 20.0852C17.5568 20.2469 18.0723 20.4895 18.5574 20.8129C19.0426 21.1162 19.4671 21.4396 19.831 21.7833C20.1949 22.1067 20.5385 22.4706 20.862 22.8749C21.4078 23.6026 21.8424 24.3 22.1658 24.9671L29.4736 40.7955L37.6303 22.511H37.9033L40.7233 40.462C41.1478 43.2921 42.0574 45.4349 43.4523 46.8903C44.8673 48.3458 46.5553 49.0736 48.5162 49.0736ZM60.2454 34.4338C60.7291 34.7102 60.9709 35.1001 60.9709 35.6035C60.9709 35.9391 60.8525 36.2204 60.6156 36.4474C60.3787 36.6744 60.0628 36.788 59.668 36.788C59.2732 36.788 58.7253 36.6892 58.0245 36.4918C57.3237 36.2846 56.8302 36.171 56.5439 36.1513C57.4718 36.9311 57.9357 37.8639 57.9357 38.9496C57.9357 40.4006 57.3237 41.6838 56.0998 42.7992C54.8758 43.9047 53.4446 44.4574 51.806 44.4574C50.2267 44.4574 48.8843 43.9195 47.7788 42.8436C46.6832 41.7677 46.1354 40.4697 46.1354 38.9496C46.1354 37.7158 46.4956 36.6498 47.2162 35.7515C47.9466 34.8533 49.0028 34.2117 50.3847 33.8268C48.2033 33.2444 47.1126 32.2228 47.1126 30.7619C47.1126 29.6466 47.6258 28.6743 48.6524 27.8452C49.6789 27.016 50.893 26.6015 52.2946 26.6015C52.9461 26.6015 53.8147 26.7248 54.9005 26.9716C55.9862 27.2085 56.7167 27.327 57.0918 27.327C57.7136 27.327 58.2762 27.169 58.7796 26.8532L59.0313 27.2381C58.1726 28.1265 57.151 28.5707 55.9665 28.5707C55.3052 28.5707 54.4612 28.3831 53.4347 28.008C52.4081 27.6231 51.6728 27.4306 51.2286 27.4306C50.508 27.4306 49.9109 27.707 49.4371 28.2597C48.9732 28.8026 48.7412 29.5034 48.7412 30.3622C48.7412 31.2308 49.0275 31.9217 49.6 32.435C50.1823 32.9384 50.972 33.1901 51.9689 33.1901C52.5118 33.1901 53.0152 33.1259 53.4791 32.9976L53.5679 33.4862C51.7517 33.7133 50.3649 34.3055 49.4075 35.2629C48.4599 36.2204 47.9861 37.4394 47.9861 38.92C47.9861 40.3118 48.4303 41.4469 49.3186 42.3254C50.2169 43.2039 51.2878 43.6431 52.5315 43.6431C53.6864 43.6431 54.6735 43.2433 55.4927 42.4438C56.312 41.6344 56.7216 40.6326 56.7216 39.4382C56.7216 38.5301 56.5045 37.8096 56.0701 37.2766C55.6457 36.7337 55.0633 36.4622 54.323 36.4622C53.7407 36.4622 53.2669 36.6251 52.9017 36.9508C52.5365 37.2667 52.3539 37.6812 52.3539 38.1945C52.3539 38.5301 52.4526 38.7966 52.65 38.994C52.8573 39.1816 53.1238 39.2754 53.4495 39.2754C53.8345 39.2754 54.1701 39.1174 54.4563 38.8016L54.634 39.2161C54.1799 40.0847 53.6321 40.5191 52.9905 40.5191C52.5365 40.5191 52.1466 40.3463 51.8208 40.0008C51.4951 39.6455 51.3322 39.2112 51.3322 38.6979C51.3322 37.7898 51.7221 37.0545 52.5019 36.4918C53.2817 35.9292 54.3675 35.6479 55.7592 35.6479L58.6316 35.796C59.6483 35.796 60.1566 35.5344 60.1566 35.0112C60.1566 34.8731 60.1122 34.7595 60.0233 34.6707L60.2454 34.4338ZM60.589 48.2549C61.1349 48.4368 61.6807 48.5278 62.2265 48.5278C62.7521 48.5278 63.308 48.4166 63.8942 48.1942C64.4804 47.9719 65.0161 47.6181 65.5013 47.1329C65.9865 46.668 66.3807 45.9605 66.6839 45.0103C67.0073 44.0602 67.169 42.9383 67.169 41.6445V25.1491C67.1488 24.6235 66.9467 24.1787 66.5626 23.8149C66.1987 23.4308 65.754 23.2387 65.2284 23.2387H64.8342V22.9355H71.4749V23.2387H71.0807C70.5551 23.2387 70.1002 23.4207 69.7161 23.7845C69.3523 24.1484 69.1602 24.6033 69.14 25.1491V41.7355C69.14 43.1101 68.9278 44.3129 68.5032 45.3439C68.0787 46.3749 67.543 47.1531 66.8961 47.6787C65.6832 48.6288 64.3389 49.1039 62.8632 49.1039C61.994 49.1039 61.1955 48.9321 60.4678 48.5884L60.589 48.2549Z" fill="white"/>
</svg>
